<?xml version="1.0" encoding="utf-8"?>
<!-- Generator: Adobe Illustrator 23.0.0, SVG Export Plug-In . SVG Version: 6.00 Build 0)  -->
<svg version="1.1" id="Layer_1" xmlns="http://www.w3.org/2000/svg" xmlns:xlink="http://www.w3.org/1999/xlink" x="0px" y="0px"
     viewBox="0 0 167.7 167.7" style="enable-background:new 0 0 167.7 167.7;" xml:space="preserve">
<style type="text/css">
	.st0{fill-rule:evenodd;clip-rule:evenodd;fill:#9900CC;}
	.st1{fill:#FFFFFF;}
</style>
    <g id="Layer_x0020_1">
	<path class="st0" d="M83.8,0c46.3,0,83.8,37.5,83.8,83.8s-37.5,83.8-83.8,83.8S0,130.1,0,83.8S37.5,0,83.8,0z"/>
        <polygon class="st1" points="107,140.5 83.5,105.4 60.3,140.5 23.7,140.5 65,83.2 25.5,27.1 61.6,27.1 84.3,59.9 106.7,27.1
		141.3,27.1 101.8,81.9 143.9,140.5 	"/>
        <path class="st0" d="M83.8,0c46.3,0,83.8,37.5,83.8,83.8s-37.5,83.8-83.8,83.8S0,130.1,0,83.8S37.5,0,83.8,0z"/>
        <polygon class="st1" points="103.5,131.9 83.6,102.1 63.9,131.9 32.8,131.9 67.9,83.3 34.4,35.7 65,35.7 84.2,63.5 103.2,35.7
		132.6,35.7 99.1,82.2 134.8,131.9 	"/>
</g>
</svg>
