<?xml version="1.0" encoding="utf-8"?>
<!-- Generator: Adobe Illustrator 23.0.0, SVG Export Plug-In . SVG Version: 6.00 Build 0)  -->
<svg version="1.1" id="Layer_1" xmlns="http://www.w3.org/2000/svg" xmlns:xlink="http://www.w3.org/1999/xlink" x="0px" y="0px"
     viewBox="0 0 535 174.2" style="enable-background:new 0 0 535 174.2;" xml:space="preserve">
<style type="text/css">
	.st0{fill-rule:evenodd;clip-rule:evenodd;fill:#9900CC;}
	.st1{fill:#FFFFFF;}
	.st2{fill:#4D4D4D;}
</style>
    <g id="Layer_x0020_1">
	<path class="st0" d="M88,3.4c46.3,0,83.8,37.5,83.8,83.8S134.3,171,88,171S4.1,133.5,4.1,87.2S41.7,3.4,88,3.4z"/>
        <polygon class="st1" points="111.1,143.9 87.6,108.7 64.5,143.9 27.8,143.9 69.2,86.6 29.6,30.5 65.8,30.5 88.4,63.2 110.8,30.5
		145.5,30.5 105.9,85.3 148.1,143.9 	"/>
        <path class="st2" d="M225.2,45c7.6,0,14.2,1.3,19.7,3.8c5.6,2.5,9.9,6.1,12.9,10.8c3,4.7,4.5,10.1,4.5,16.4
		c0,6.3-1.5,11.8-4.5,16.4c-3,4.6-7.3,8.2-12.9,10.7c-5.6,2.5-12.2,3.8-19.7,3.8h-14.6v21.9H187V45C187,45,225.2,45,225.2,45z
		 M223.8,88.2c4.9,0,8.5-1.1,11-3.2c2.5-2.1,3.7-5.1,3.7-9s-1.2-6.9-3.7-9.1c-2.5-2.2-6.1-3.2-11-3.2h-13.2v24.5L223.8,88.2
		L223.8,88.2z M317.3,130.4c-8.8,0-16.8-1.9-23.9-5.6c-7.1-3.7-12.6-8.9-16.6-15.5c-4-6.6-6-14.1-6-22.4c0-8.3,2-15.7,6-22.4
		c4-6.6,9.6-11.8,16.6-15.5c7.1-3.7,15-5.6,23.9-5.6c8.8,0,16.8,1.9,23.9,5.6c7.1,3.7,12.6,8.9,16.6,15.5c4,6.6,6,14.1,6,22.4
		c0,8.3-2,15.7-6,22.4c-4,6.6-9.6,11.8-16.6,15.5C334.1,128.5,326.1,130.4,317.3,130.4z M317.3,110.8c4.2,0,8.1-1,11.5-3
		c3.4-2,6.1-4.8,8.1-8.4c2-3.6,3-7.8,3-12.5c0-4.7-1-8.9-3-12.5c-2-3.6-4.7-6.4-8.1-8.4c-3.4-2-7.3-3-11.5-3c-4.2,0-8.1,1-11.5,3
		c-3.4,2-6.1,4.8-8.1,8.4c-2,3.6-3,7.8-3,12.5c0,4.7,1,8.9,3,12.5c2,3.6,4.7,6.4,8.1,8.4C309.2,109.8,313.1,110.8,317.3,110.8z
		 M412.8,106.5h-12.9v22.2h-23.7V45h38.3c7.6,0,14.2,1.3,19.7,3.8c5.6,2.5,9.9,6.1,12.9,10.8c3,4.7,4.5,10.1,4.5,16.4
		c0,6.1-1.4,11.3-4.2,15.8c-2.8,4.5-6.9,8-12.1,10.6l18.1,26.3H428L412.8,106.5L412.8,106.5z M427.8,76c0-3.9-1.2-6.9-3.7-9.1
		c-2.5-2.2-6.1-3.2-11-3.2h-13.2v24.5h13.2c4.9,0,8.5-1.1,11-3.2C426.6,82.9,427.8,79.9,427.8,76L427.8,76z M481.4,63.8h-25.7V45h75
		v18.8H505v64.9h-23.7C481.4,128.7,481.4,63.8,481.4,63.8z"/>
        <path class="st0" d="M88,3.4c46.3,0,83.8,37.5,83.8,83.8S134.3,171,88,171S4.1,133.5,4.1,87.2S41.7,3.4,88,3.4z"/>
        <polygon class="st1" points="107.6,135.3 87.7,105.5 68,135.3 37,135.3 72,86.6 38.5,39.1 69.1,39.1 88.4,66.9 107.3,39.1
		136.7,39.1 103.2,85.5 138.9,135.3 	"/>
</g>
</svg>
